<?xml version="1.0" encoding="utf-8"?>
<svg version="1.1"  xmlns="http://www.w3.org/2000/svg" xmlns:xlink="http://www.w3.org/1999/xlink" x="0px" y="0px"
	 viewBox="0 0 3386 639.1" xml:space="preserve">
<path fill="#55ACEE" d="M3277,524.3v-11h-28v11h-90v-17h-18v17h-8.9l-17.1,14v-26h2v-13h-4.3l-4.7-3.9v-7.1h-10.1l-9.1-7H3057v-9
	h-65v9h-25v-6h-46v-2h-33v-8h1v-2h-1v-60h-5v4.6l-7-15.3l-12-24.5l-12,24.4l-12,20.8h-0.8v1h-10v-7h-6v7h-19v-7h-6v7h-17.9l-4.4-11
	h-4.7v-16h-3v-278h2.5l2.6-18h-19.1l-0.3-11.1c3.3,0.3,7.2-2.6,11.2-0.8V52.6c-4-2-8.7,1.5-12.2,0.4l-0.1-1.1l-2.4,0.3l1.3,39.2
	H2730l3.3,18h1.7v22.5l0,0.1l0,0v139.2l0,0.1l0,0V408l0,0.1l0,0v7.9l-21-0.1v-11.4l0.3-0.2l-0.3-0.4v-23.6l0.3-0.2l-0.3-0.4v-23.6
	l0.3-0.2l-0.3-0.4v-23.6l0.3-0.2l-0.3-0.4v-23.6l0.3-0.2l-0.3-0.4v-23.6l0.3-0.2l-0.3-0.4v-23.6l0.3-0.2l-0.3-0.4v-26.3l0.3-0.2
	l-0.3-0.4v-27.4l0.4-0.3l-0.4-0.4v-1.2h-84v29c-19,0.7-35.5,12.2-42.6,29.8l0,0c-0.1,0.2-0.2,0.5-0.3,0.7
	c-5.7,12.3-15.8,21.8-28.5,26.6c-18.3,7-39.3,3.5-53.8-9.8l0,0c-8.3-6.4-18.6-9.9-29-9.9c-26.3,0-47.7,21.3-47.7,47.5v15.1h-36v184
	h-15v-62.6l-14.6-1.4l3.6-5.4v-6.6h-2.4l0.1-2.5c0.1-2.1,0.2-4.5,0.3-6.5h2v-2h-1.9c0.1-8-0.4-16.9-1.5-25.2l-0.5-3.5l-1.4-7.7
	c-0.3-1.4-0.6-3-0.9-4.4c-0.2-0.7-0.3-1.3-0.5-2.3h1.8v-3h-2.7c-3.4-13-8.3-25-14.6-37h0.3v-2h-1.6c-6.8-12-15.4-23.5-24.4-33.6
	v-2.4h-1.9c-10.7-11-22.9-20.6-36.4-28.5c-41.8-24.5-92.3-30.1-138.6-15.1c-13.4,4.3-26.1,10.6-37.9,17.6h-3.2v2.1
	c-10,7-20,14.9-28.9,23.9h-4.1v4h0.8c-8.8,10-16.6,20-23.1,32h-4.7v2h3.5c-0.8,2-1.7,3.2-2.4,4.8l-1.9,3.9l-1.4,3.3
	c-3.5,8-6.4,16-8.7,25h-4v3h3.1c-0.5,2-1,4.5-1.4,6.6l-0.4,2.4h-1.3v6.4l3.7,4.8c-1.3-1.3-2.5-2.7-3.6-4.2l-0.3,2
	c-1.1,8.3-1.6,16.9-1.5,24.9h-4.3v2h4.3c0.1,3,0.2,6,0.4,9h-4.7v6.6l5.2,6.4h1c1,6,2.3,12,4,19h-4.2v2h4.8c0.3,1,0.2,1.9,1.2,3v6h-6
	v6.2l4.7,5.8h6.5l0.8-0.9c2.6,6.1,5.6,11.9,8.9,17.9h-5.9v2h7v8h-7v6h-42v-90h-106v-331h-45v-40h-3v371h-58v90h-19v-338h4.6
	l17.6-13.3l2.1-25.7H1767l-0.1-41l0,0l3-14.3l0,0l0,0l-3-37.7h-0.9v-7h-10v-33h-3v33h-11v7h-1.3l-2.8,37.7l0,0l0,0l3.1,14.3l0,0v41
	h-21.7l2.2,25.5l15.8,13.5h4.7v209.9l-117.5,0c-4.6,0-8.3,3.5-8.3,7.8l0,21.3c0,0-0.1,0.1-0.1,0.1c-1.8,0-3.4,1.4-3.4,3l0,6.1
	c0,1,0.7,2,1.7,2.5c0.5,0.5,1.1,0.9,1.9,1.1c0,0-0.1,6.1-0.1,6.1l0-0.4c-1.8,0-3.5,1.4-3.5,3.1l0,6.1c0,0.9,0.5,1.7,1.3,2.2
	c0.5,0.9,1.4,1.6,2.4,1.8l0,9.3c-0.1,0.1-16.4-24.2-16.4-24.2H1567v-56h2v-51h3v51h3v-64h-11v-5h-11v5h-5v64h2v21h-16v-62h-2v-26h-3
	v-28.1l-5.6-7.8l-3.3-6.1l-3.1,6.1l-5,7.8v6.5l-5.4-8.4l-3.5-6.1l-3.5,6.1l-3.6,6.3v-7.3h0.1l-6.8-9.7l0-0.3h0l-3.4-5.9l-0.1,0.4
	l-8.7,15.5h-0.2v12h-1v-3h-0.5c-0.4-5-2.6-10-5.3-11.6c0,0-0.2,0.1-0.2,0.1v-3.5c0-0.7-1.6-1-1-1.2c0,0-1,0.5-1,1.2v3
	c-4,0.2-6.4,6-7,12h-1v3h-1v6h1v19h-1.4c-2.4-2-3.6-12.8-3.6-12.8v-11.2h-2v-14.8l-13,5.3v9.5h-3v11.2c0,7.7-3,12.4-3,12.4v82.4h-4
	v35h-82.8l0.1-0.1l-0.1-0.1l-35.2,39.8V329.3h2l-1.1-4h-2.6l-11-19h0.7v-34h1.5l-1.1-2h-2.5l-21.9-48.8l-21.9,48.8h-2.1l-1.1,2h2.1
	v1h-0.4l0.4,14.5v18.5h0.1l-10.8,19h-2.8l-1.1,4h2.6v61h-3v10h3v117h-51v-147c0-3.9-3.2-7-7-7H759.8c-3.7,0-6.8,3-6.8,6.8v90.2
	l-33.5,0.1L695,446l0-52.7h0c-0.1-10-6-18.8-16-21v-0.1c0-0.5,0-1,0-1.6c0-2.5-1-4.4-4-5.4h0v-6h0.1c1.2-1,1.8-1.8,1.8-3.2
	c0-1.7-1-3.1-3-3.5v-6.9c1-0.3,0.9-0.7,0.9-1.2c0-0.8-0.6-1.6-1.4-1.6c-0.9,0-1.6,0.7-1.6,1.5c0,0.7,0.2,1.3,1.2,1.5v6.6
	c-2,0.2-3.3,1.7-3.3,3.6c0,1.5,1.3,2.8,2.3,3.3v5.7c-2,0.7-4.2,2.9-4.2,5.5c0,0.6,0.1,1.2,0.2,1.7c-9.5,2.2-16.9,10.9-17,20.9v21
	h-14v-25h-6v-61h5v-5h-5v-20h-0.2c-0.2-14.9-11-28.1-25.4-31.4c0,0-2.7-4.6-2.7-6.8c0-2-0.7-5.8-0.7-5.8h-2V254l0-0.4
	c1.2,0,2.2-1.7,2.2-3.1c-0.1-2.3-1.1-3.2-3.1-3.6v-6.4c0,0,0,0,0,0c0.6-0.3,1.1-0.8,1.1-1.6c0-0.8-0.9-1.5-1.7-1.5
	c-0.9,0-1.5,0.7-1.5,1.5c0,0.7,0.1,1.4,1.1,1.6v6.4c-2,0.2-3.3,1.7-3.3,3.6c0,1.5,1.3,2.8,2.3,3.3v5.5h-2.7c0,0-0.6,3.8-0.6,5.8
	c0,2.2-2.6,6.7-2.6,6.7c-14.6,3.2-25.1,16.5-25.1,32.5v19h-4v5h4v61h-6v25h-15v-21c0-10-7.5-19-17.2-21.2l-0.1,0
	c0.1-0.5,0.1-1,0.1-1.6c0-2.4-1.8-4.5-3.8-5.3v-5.9h-0.2c1.2,0,2-1.6,2-3.1c0-1.7-0.8-3-2.8-3.4v-6.5c0-0.3,0.7-0.7,0.7-1.3
	c0-0.9-0.9-1.7-1.8-1.5c-0.7,0.1-1.2,0.8-1.2,1.5c0,0.7,0.3,1.3,1.3,1.5v6.2c-2,0.2-3.3,1.7-3.3,3.6c0,1.5,0.3,2.8,2.3,3.3v5.3
	c-3,0.7-4.4,2.9-4.4,5.5c0,0.7,0,1.3,0.2,1.9l0,0c-9,2.6-15.7,10.8-15.7,20.8H501v35.4l-0.6,17.2L476,460.3h-28.9l-3.1,5.1V459
	c0-3.1-2.5-5.6-5.6-5.6H395v-7h-10.9c-0.7-3-3.7-6-7.4-6h-33.1c-3.7,0-6.7,3-7.4,6H326v7h-50.8c-3.4,0-6.2,2.8-6.2,6.2v72.8h-20
	l-3.6-1.2l-4.3,1.2H215v18h-4v-11h-52v-13h-43v13H71v-13H0v112.7h3386V524.3H3277z M2353.5,392.4c0.1,0.3,0.1,0.6,0.2,1l0.1,0.7
	h-0.3V392.4z M2337,347.9c1,2,2,3.5,3,5.5h-3V347.9z M2333.3,366.3h6.5l3.7-5.1c2.9,6.7,5.4,14.1,7.4,21.1h-7v2.2l-28.2,7.6
	c-2.7-10.1-6.4-19.6-11.4-28.5L2335,346v7.3h-8v7.4L2333.3,366.3z M2302.1,364.9c4.9,8.7,8.7,18.1,11.4,27.9l-70.3,19
	c-1-3.6-2.4-7.1-4.1-10.4L2302.1,364.9z M2238,399.4c-2-3.3-4.3-6.4-6.9-9.2l51.5-51.5c7.1,7.3,13.3,15.4,18.4,24.1L2238,399.4z
	 M2318,320.4c6,7.1,11.5,15,16.3,23h-7.3v2h3.7l-27.7,16.2c-5.2-9-11.8-17.2-19-24.6l17-17.1v6.4l6.5,6.1h6.5l4-6.1V320.4z
	 M2311,312.6c2,2.3,4.2,4.8,6.3,6.8h-6.3V312.6z M2309,319.3h-7.3l7.3-6.6V319.3z M2277,285.5c10,6.3,20.2,13.9,29.1,21.9h-5.1v4
	h5.6l-24,24c-7.3-7.2-15.7-13.6-24.6-18.9l10-17.7v0.6l5,6h6.5l4.5-6v-6h-7V285.5z M2271.3,293.3l2.7-4.8v4.8H2271.3z M2236,270.2
	l0.6-1.7c11.4,3.1,22.7,7.9,33.3,12.9h-1.9v3h6.1l-5.5,9h-0.6v0.7l-12.1,21.2c-9-5.1-18.6-9.2-28.8-12c1.5-5.5,3-11.1,4.4-16.3
	l1.4,1.4h6.5l4.6-5.3v-5.7h-8V270.2z M2201,264.3V263c9,0.4,18,1.6,27,3.5v0.8h4.6c0.5,0,1.4,0.4,1.4,0.6v1.8c-1,2.4-1.3,4.6-2,7.6
	h-4v5.7l1.6,1.9c-1.6,5.7-3,11.6-4.7,17.6c-9.6-2.5-20-3.8-30-3.9v-10.4h-0.2c0,0,0-2,0-4h2.2l3.9-5.8v-7.2h-6.2c0-3,0-5,0-7H2201z
	 M2154.7,267.3h2.3v-0.4c9-2,18-3.3,27-3.8v1.2h8.4c0,2,0,4,0,7h-8.4v7.2l6.5,5.8h1.5v14.4c-10,0.1-20.6,1.5-30.4,4
	c-1.7-6.5-3.5-12.8-5.1-18.9l0.5-0.8v-5.7h-2.2c-0.7-3-1.4-5.4-2.2-7.9l-0.3-1.3C2153.1,267.9,2153.9,267.3,2154.7,267.3z
	 M2148.1,401.5c-1.6,3.1-3,6.5-3.9,10l-70.4-18.7c2.7-9.8,6.5-19.1,11.3-27.7L2148.1,401.5z M2086.3,363
	c5.1-8.8,11.3-16.9,18.3-24.1l51.6,51.4c-2.6,2.8-4.9,5.9-6.9,9.2L2086.3,363z M2143.6,413.8c-0.8,3.7-1.3,7.5-1.3,11.5
	c0,1,0,2,0.1,3l-72.9,0c0-1,0-2,0-3c0-10.4,1.3-20.5,3.7-30.2L2143.6,413.8z M2142.6,430.6c0.3,2.6,0.7,5.1,1.4,7.5l-70.3,18.9
	c-2.2-8.5-3.6-17.3-4-26.4L2142.6,430.6z M2144.6,440.4c1.1,3.7,2.7,7.2,4.6,10.5L2086,487c-5-8.6-9-18-11.7-27.7L2144.6,440.4z
	 M2150.4,452.9c1.9,2.9,4,5.6,6.4,8.1l-51.5,51.5c-7-7-13.1-14.9-18.2-23.4L2150.4,452.9z M2106.2,337.2
	c7.1-7.1,15.1-13.3,23.8-18.5l36.4,63.1c-3.1,2-6,4.3-8.7,6.8L2106.2,337.2z M2132,317.5c8.8-5,18.2-9,28.2-11.8
	c6.2,22.9,12.8,47.6,18.8,70.4v0c-4,1.1-7.2,2.6-10.5,4.5L2132,317.5z M2162.2,305c9.6-2.5,19.8-3.9,29.8-4v72.8
	c-3,0.1-7.5,0.6-11.2,1.5C2174.8,352.7,2168.4,328,2162.2,305z M2150,269.1l0.3,0.7l0,0c0,0,0,0,0,0.1l1.2,4.6l0.1,0.2
	c0.2,0.8,0.5,1.7,0.7,2.7h-2.3V269.1z M2113,284.3h4v-2.5c8-4.5,17.3-8.2,26.4-11.1c1.5-0.5,2.6-0.9,4.6-1.4v8h-6v5.7l4.9,5.3h6.5
	l1.5-2c1.5,5.5,3,11.2,4.6,17c-10.1,2.8-19.7,7-28.7,12.1l-18-31.1C2112.9,284.3,2113,284.3,2113,284.3z M2110,285.9
	c0-0.2,0.5-0.4,0.8-0.6l4.7,8.1h-5.5V285.9z M2081.2,307.3c8.1-7,16.8-14.1,26.8-20v6h-8v6l6.8,6h6.5l3.6-6v-3.1l11.8,20.4
	c-8.9,5.3-17,11.7-24.3,18.9l-24.3-24.2h2.8v-4H2081.2z M2073,315.8v3.6h-3.1C2071,318.3,2072,317,2073,315.8z M2067,322.6v3.6
	l5.3,6.1h6.5l4.1-6.1v-6.9h-7v-6.1c0-0.5,0.9-1.1,1.4-1.6l25.6,25.6c-7.2,7.4-13.5,15.5-18.7,24.5l-28.1-16.3h0.8v-2h-4.1
	C2057.2,336.3,2062,329,2067,322.6z M2042.9,363.1l3.6,3.2h6.5l4-5.6v-7.4h-7V349c0-1.1,1.1-2.3,1.7-3.4l31.4,18.3
	c-4.9,8.8-9,18.3-11.7,28.3l-31.5-8.3v-1.5h-3.7C2038.1,375.3,2040.3,369.3,2042.9,363.1z M2031.5,407.3h4.8l3.7-6.6v-6.4h-7V394
	c0,0,0.3,0,0.5,0l0.1-0.8c0.5-2.6,1.1-4.8,1.8-7.8h2.8l32.7,8.9c-2.5,9.9-3.8,20.3-3.8,30.9c0,1-0.1,2.1-0.1,3.1l-33,0.1v0h-3.6
	C2030.3,421.3,2030.6,414.3,2031.5,407.3z M2032.1,450.3l-0.2-0.5l2.1-3.8v-6.6h-3.2c-0.2-3-0.4-5.7-0.4-8.5l36.8-0.1
	c0.4,9.3,1.8,18.3,4.1,26.9l-35.8,9.6C2034.1,461.7,2032.9,456,2032.1,450.3z M2040.2,482.4c-1.1-3-2.1-6.1-3-9.1h2.8v-2h-3.5
	c-0.1-1-0.2-1.1-0.4-1.6l35.8-9.7c2.8,10,6.9,19.4,12,28.2l-32.3,18.5C2047.1,499,2043.3,490.8,2040.2,482.4z M2050,521.3v-4.2
	c1,1.5,1.6,3.2,2.6,4.2H2050z M2065.9,527.3c-3.6-4-7-9-10.2-14h1.3v-2h-2.8c-0.5-1-0.9-1.7-1.4-2.5l32.3-18.5
	c5.2,8.7,11.5,16.6,18.6,23.8l-13.4,13.3H2065.9z M2093.6,527.3l11.8-11.8c4.3,4.2,9,8.8,13.9,11.8H2093.6z M2123.4,527.3
	c-5.8-4-11.3-8.4-16.4-13.3l51.5-51.4c2,1.8,4,3.4,6.3,4.9l-34.6,59.8H2123.4z M2145.6,515.3l25.5-44.1c2.5,1.2,5.1,2.1,7.8,2.9
	l-11,41.2H2145.6z M2188,515.3h-17.6l10.8-40.5c2.2,0.5,4.8,1.2,6.8,1.4V515.3z M2202,515.3h-12v-38.8c1,0.1,2.3,0.1,3.4,0.1
	c2.9,0,5.6-0.3,8.6-0.7V515.3z M2195,373.9v-72.8c10,0.1,20,1.4,29.4,3.8c-3.8,14.3-7.7,29.2-11.5,44c-2.4,9.1-4.6,18-6.8,26.5
	C2202.5,374.5,2199,374,2195,373.9z M2208.3,376c2.2-8.5,4.5-17.4,6.9-26.6c3.8-14.7,7.6-29.7,11.4-43.9c10,2.8,19.5,6.7,28.3,11.8
	l-36.4,63.1C2215.3,378.5,2211.9,377.1,2208.3,376z M2220.6,381.5l36.4-63.1c8.7,5.2,16.8,11.4,23.9,18.5l-51.5,51.5
	C2226.7,385.8,2223.8,383.5,2220.6,381.5z M2232.1,463.2l-1.9-1.9c2.7-2.7,5.1-5.8,7.1-9.1l11.3,6.6L2232.1,463.2z M2288,469.7
	l-16,0v-16.9l-20.1,5.3l-13.4-7.8c1.7-3.1,2.9-6.3,3.9-9.7l45.5,12.3V469.7z M2315.8,446.8l-27.8-3v6.4l-44.8-11.9
	c0.5-2.1,1.2-4.1,1.4-6.1h73.1C2317.4,437.3,2316.6,442,2315.8,446.8z M2317.8,429.3h-72.9c0.1-1,0.2-2.7,0.2-4.2
	c0-3.8-0.4-7.5-1.2-11.1l70.3-19c2.4,9.7,3.7,19.7,3.7,30.1C2317.8,426.6,2317.8,428.3,2317.8,429.3z M2356.6,436.8l-0.2,2.5h-6.5
	v6.6l4.2,4.5l-35.9-3.3c0.8-4.9,1.4-9.7,1.7-14.7h36.8C2356.8,433.3,2356.7,435.3,2356.6,436.8z M2350,428.3v1h-29.9
	c0-1,0.1-2.7,0.1-4.2c0-10.6-1.3-21.1-3.8-30.9l32.3-8.9h2.2v9h-7v6.4l6.1,6.6h5.8c0.8,7,1.2,14,1.1,21H2350z M2402,403.3h-6
	l-0.9-0.8l-0.1,0.1v-21.3h1.1l5.9,4.3V403.3z M2402,379.3h-5.2l-1.7-1.2l-0.1,0.3v-21.1h0.2l6.8,4.1V379.3z M2402,354.3h-6.1
	l-0.8-0.5l-0.1,0.4v-19.9l7,4.4V354.3z M2406.1,412.7 M2417,416.6l-2.4-0.8l-10.6-7.2v-3.2h13V416.6z M2417,403.3h-13v-16.1l13,8.8
	V403.3z M2417,393.2l-13-8.8v-3h13V393.2z M2417,379.3h-13V363l13,8.8V379.3z M2417,369l-13-8.8v-2.8h13V369z M2417,354.3h-13v-14.1
	l13,8.1V354.3z M2417,345.5l-13-8.1v-4.1h13V345.5z M2428,420.4l-8-2.9v-12.1h8V420.4z M2428,400.4l-8-5.6v-13.5h8V400.4z
	 M2428,376.2l-8-5.6v-13.3h8V376.2z M2428,352.1l-8-5.1v-13.6h8V352.1z M2643,204.3h31.9l-31.9,26.8V204.3z M2676,415.7l-3.7,0.2
	l-5.8-12.6h-2.5v-16h-15v16h-3.7l-5.2,11H2599v32h-87v-3h-26v3h-5v-7.2l-51-18v-19.1l0.1-0.1l-0.1,0v-24l0.1-0.1l-0.1,0v-24.1l0-0.1
	l0,0v-37.4c0-24.9,20.5-45.1,45.6-45.1c9.9,0,19.8,3.3,27.7,9.4l0,0c10.2,9.3,23.6,13.6,36.8,13.6c6.5,0,13-1.2,19.3-3.6
	c1.1-0.4,2.2-0.9,3.2-1.4l0.1,0.1c2,2.8,5.9,3.5,8.7,1.5l6.3-4.5c2.8-2,3.5-5.9,1.5-8.7c0.6-0.6,1.2-1.3,1.8-1.9
	c2.7,1.9,6.5,1.2,8.4-1.5l4.7-6.8c3.6-5.9-2.3-9.3-2.3-9.3c7.6-14.3,22.5-23.5,38.3-24.2v0.6h6.3c23.6,2,39.6,27,39.6,49h0.1V415.7z
	 M2676,269c-4-15.3-15-29.6-29.9-34.6h29.9V269z M2676,231.3h-29.7l29.7-25V231.3z M2686,415.8l-7,0v-10.4h7V415.8z M2686,396.6
	l-7,4.8v-20.1h7V396.6z M2686,372.4l-7,4.8v-19.9h7V372.4z M2686,348.2l-7,4.8v-19.7h7V348.2z M2686,324l-7,4.8v-20.5h7V324z
	 M2686,299.8l-7,4.8v-20.3h7V299.8z M2686,275.6l-7,4.8v-20.1h7V275.6z M2686,250.9l-7,5.4v-22h7V250.9z M2686,224.3l-7,5.8v-25.7
	l-0.4,0h7.4V224.3z M2701,410.4l-7.9,5.4l-5.1,0v-10.4h13V410.4z M2701,403.3h-13v-5.5l13-8.8V403.3z M2701,386.2l-13,8.8v-13.7h13
	V386.2z M2701,379.3h-13v-5.7l13-8.8V379.3z M2701,362l-13,8.8v-13.5h13V362z M2701,354.3h-13v-4.9l13-8.8V354.3z M2701,337.8
	l-13,8.8v-13.3h13V337.8z M2701,331.3h-13v-6.1l13-8.8V331.3z M2701,313.6l-13,8.8v-14.1h13V313.6z M2701,306.3h-13v-5.3l13-8.8
	V306.3z M2701,289.4l-13,8.8v-13.9h13V289.4z M2701,282.3h-13v-5.5l13-8.8V282.3z M2701,265.2l-13,8.8v-13.7h13V265.2z M2701,257.3
	h-13v-5.2l13-9.9V257.3z M2701,239.3l-13,9.9v-14.8h13V239.3z M2701,231.3h-13v-5.9l13-10.6V231.3z M2701,211.8l-13,10.6v-18h13
	V211.8z M2712,415.8l-9,0v-4.1l9-5.6V415.8z M2712,403.3h-9v-15.9l9-5.6V403.3z M2712,379l-0.8,0.3h-8.2v-16.1l9-5.6V379z
	 M2712,354.3h-9v-15.3l9-5.6V354.3z M2712,330.6l-0.7,0.7h-8.3v-16.5l9-5.6V330.6z M2712,306.3h-9v-15.7l9-5.6V306.3z M2712,282.2
	l-0.6,0.1h-8.4v-15.9l9-5.6V282.2z M2712,257.3h-9v-16.9l9-6.3V257.3z M2712,231.2l-0.8,0.2h-8.2v-18.4l9-6.7V231.2z M2757,391.7
	l-13,10.7v-15.1h13V391.7z M2758,385.3h-14v-16.2l14,11.8V385.3z M2758,377.8l-14-11.8v-0.7h14V377.8z M2758,362.3h-14v-3.8l14-11.6
	V362.3z M2758,343.8l-14,11.6v-14.1h14V343.8z M2758,339.3h-14v-15.6l14,11.5V339.3z M2758,332.2l-14-11.5v-1.4h14V332.2z
	 M2758,316.3h-14v-1.8l14-11.7V316.3z M2758,299.8l-14,11.7v-16.2h14V299.8z M2758,293.3h-14v-15.6l14,10.9V293.3z M2758,285.7
	l-14-10.9v-1.4h14V285.7z M2758,270.3h-14v-2.8l14-11.6V270.3z M2758,252.9l-14,11.6v-15.2h14V252.9z M2758,247.3h-14v-17.6l14,11.8
	V247.3z M2758,238.5l-14.3-12.2h14.3V238.5z M2758,224.3h-14V221l14-11.7V224.3z M2758,206.3l-14,11.7v-14.6h14V206.3z M2758,200.3
	h-14v-15.9l14,11.5V200.3z M2758,192.9l-14-11.5v-1.1h14V192.9z M2758,178.3h-14V174l14-11.6V178.3z M2758,159.3l-14,11.6v-13.6h14
	V159.3z M2758,154.3h-14v-16l14,10.9V154.3z M2758,146.3l-14-10.9v-1h14V146.3z M2758,132.3h-14v-21h14V132.3z M2766,384l-0.5,0.4
	l-5.5-4.5v-14.5h6V384z M2766,362.3h-6v-17.4l4.3-3.6h1.1l0.6,0.7V362.3z M2760.1,341.9v-0.4h0.5L2760.1,341.9z M2766,337.1l-1.2,1
	l-4.8-3.8v-14.8h6V337.1z M2766,316.3h-6V301l6-4.9V316.3z M2766,292.1l-6-4.6v-14.2h6V292.1z M2766,270.3h-6V254l5.9-4.7h0.1V270.3
	z M2766,245.4l-6-4.9v-14.1h6V245.4z M2766,224.3h-6v-16.9l5.3-4.1h0.7V224.3z M2766,199.5l-0.1,0.1l-5.9-4.7v-14.5h6V199.5z
	 M2766,178.3h-6v-17.9l4.3-3.1h1.7V178.3z M2766,152.6l-0.1,0.1l-5.9-4.5v-13.8h6V152.6z M2766,132.3h-6v-21h6V132.3z"/>
</svg>
