<?xml version="1.0" encoding="utf-8"?>
<!-- Generator: Adobe Illustrator 16.0.0, SVG Export Plug-In . SVG Version: 6.00 Build 0)  -->
<!DOCTYPE svg PUBLIC "-//W3C//DTD SVG 1.1//EN" "http://www.w3.org/Graphics/SVG/1.1/DTD/svg11.dtd">
<svg version="1.1" id="jogja_logo" xmlns="http://www.w3.org/2000/svg" xmlns:xlink="http://www.w3.org/1999/xlink" x="0px" y="0px"
	 width="124.238px" height="49.271px" viewBox="7.174 9.1 124.238 49.271" enable-background="new 7.174 9.1 124.238 49.271"
	 xml:space="preserve">
<path fill="#ed1c24" d="M64.972,23.976l-0.115-0.06c0-1.899,1.325-3.395,1.441-4.086c-2.248-0.058-4.491,0-6.736,0
	c-2.417,0-3.687,0.171-5.299,1.381c-3.166,2.361-3.107,5.236-3.799,9.67c-0.287,1.9-0.633,3.745-0.918,5.757
	c-0.347,2.018-0.691,3.916,0.461,5.642c0.92,1.325,2.358,2.188,4.488,2.188c2.246,0,4.547-0.062,6.736,0
	c0.174,1.208-0.46,2.82-1.439,3.565c-1.093,0.862-2.707,0.689-4.375,0.689c-1.441,0-6.103-0.286-7.141,0.402
	c-0.46,0.345-0.979,0.807-1.036,1.613c1.784,0.063,12.608,0.116,13.759,0c2.013-0.23,3.395-1.207,4.49-2.361
	c1.324-1.383,1.67-2.477,2.073-4.835l2.875-17.674c0.173-1.265,0.921-5.123,0.921-6.102C68.195,19.887,66.063,21.903,64.972,23.976z
	 M64.51,24.665c-0.345,2.246-2.015,14.738-2.821,16.005c-1.324,2.128-4.375,1.958-5.469,1.383c-0.865-0.461-1.266-1.326-1.094-2.65
	c0.461-4.088,1.326-8.749,2.073-12.894c0.403-2.36,0.461-4.03,2.879-4.606l0.057-0.114C62.151,21.326,64.972,21.727,64.51,24.665z"
	/>
<path fill="#ed1c24" d="M107.052,42.339c-1.208-0.059-2.473,0.289-3.569-0.289c-1.612-0.861-1.093-3.225-0.749-4.607l2.65-16.347
	c0.058-0.461,0.169-0.863,0.058-1.325c-0.808-0.116-11.514-0.057-12.953,0c-1.15,0.058-2.761,0.461-3.685,1.149
	c-2.361,1.669-3.108,3.454-3.515,6.333c-0.52,3.513-1.15,7.023-1.725,10.479c-0.116,0.803-0.172,1.496-0.059,2.304
	c0.116,1.035,0.401,1.668,0.982,2.303c1.209,1.496,2.243,2.07,4.546,2.07h6.099c2.417,0,2.997-1.493,3.226-1.61
	c0.633,0.344,0.233,1.555,3.569,1.555c1.613,0,3.339,0.23,4.259-0.519C106.591,43.491,107.169,43.089,107.052,42.339z M98.936,23.4
	c-0.861,5.297-1.783,10.533-2.591,15.832c-0.229,1.495-0.749,2.361-2.131,2.936c-0.575,0.233-2.762,0.401-3.394,0.114
	c-1.094-0.462-1.555-1.151-1.555-2.357l0,0v-0.003c0,0,0,0,0,0.003h0.058c0.803-5.071,1.442-10.479,2.475-15.489
	c0.232-1.151,1.034-2.015,2.014-2.419c1.094-0.401,4.149-0.229,5.297-0.229C99.051,22.477,99.051,22.766,98.936,23.4z"/>
<path fill="#ed1c24" d="M44.936,20.636c-1.554-0.921-2.647-0.805-4.835-0.805c-1.035,0-4.951-0.115-5.642,0.056v-0.056
	c-3.453,0.92-5.872,2.475-6.445,6.389l-1.612,10.133c-0.345,1.899-0.805,4.085,0.461,5.813c1.842,2.417,3.455,2.302,6.333,2.302
	c1.497,0,4.375,0.172,5.757-0.058c1.553-0.23,2.993-0.921,3.973-1.953c2.245-2.417,1.958-2.88,2.591-5.99
	c0.345-2.302,0.921-4.892,1.15-7.137C47.011,26.278,48.333,22.65,44.936,20.636z M40.795,27.947
	c-0.231,1.555-1.843,11.917-2.303,12.722c-1.21,2.189-4.491,1.959-5.469,1.44c-1.843-0.977-0.863-3.683-0.576-5.87
	c0.52-3.223,1.036-6.391,1.554-9.615c0.46-1.899-0.115-2.647,1.554-4.086l0.057-0.059c1.035-0.863,3.397-1.036,4.548-0.46
	C42.177,23.112,41.08,25.414,40.795,27.947z"/>
<path fill="#ed1c24" d="M7.174,50.687c1.784,0.172,4.261,0.057,6.103,0.057c0.864,0,2.016-0.114,2.706-0.344
	c1.439-0.518,2.532-1.38,3.569-2.532l0.63-0.866c0.29-0.461,0.347-0.576,0.521-1.093c0.345-0.979,0.803-3.972,0.979-5.124
	l1.036-6.502c0.059-0.461,0.115-0.862,0.173-1.324l1.035-6.506c0.06-0.459,0.06-0.344,0.115-0.63
	c0.058-0.172,0.058-0.519,0.115-0.691l0.805-5.066c-0.115-0.98-2.072,0-2.474,0.174c-2.533,1.036-4.317,3.452-4.547,6.102
	c-0.059,0.689-0.289,1.496-0.403,2.591l-2.527,15.602c-0.233,1.67-0.289,2.761-2.018,3.684c-1.783,0.981-4.203-0.345-5.297,1.21
	c-0.229,0.288-0.46,0.75-0.46,1.151L7.174,50.687z"/>
<path fill="#ed1c24" d="M65.779,50.687c4.202,0,7.654,0.519,10.191-1.729c2.645-2.36,2.645-4.486,3.281-8.693
	c0.519-3.397,1.034-6.908,1.67-10.305l1.673-10.248c-3.052-0.229-6.044,2.707-6.796,5.065c-0.46,1.44-0.633,3.569-0.921,5.125
	c-0.288,1.725-0.575,3.395-0.806,5.121c-0.52,3.341-1.151,6.852-1.671,10.306c-0.633,4.318-4.088,2.994-5.295,3.628
	c-0.691,0.344-1.21,0.979-1.265,1.781L65.779,50.687z"/>
<path fill="#ed1c24" d="M19.145,19.541c1.442,0,2.592-0.519,3.744-1.209l0.171-0.115c0.979-0.749,1.668-1.555,2.246-2.647
	c0.69-1.381,0.921-2.877,1.151-4.49c0.057-0.461,0.173-1.67,0.344-1.957c-1.382,0-1.668,0.173-2.647,0.574
	c-0.058,0.059-0.115,0.059-0.229,0.059c-0.172,0.058-0.059,0.058-0.229,0.115c-0.06,0.06-0.347,0.173-0.404,0.229
	c-0.173,0.116-0.173,0.059-0.345,0.174c-0.749,0.518-1.497,1.208-2.073,1.957c-1.21,1.612-1.21,3.743-1.555,5.239
	c-0.115,0.575-0.345,1.496-0.23,2.072L19.145,19.541L19.145,19.541z"/>
<path fill="#ed1c24" d="M76.544,19.601c0.689-0.059,1.669-0.174,2.361-0.461c1.09-0.46,2.417-1.383,3.109-2.361
	c0.748-1.095,1.322-1.785,1.61-3.627c0.116-0.75,0.171-1.325,0.287-1.957c0.116-0.575,0.346-1.439,0.171-2.073
	c-0.632-0.058-0.689,0-1.438,0.173c-0.233,0.058-0.52,0.173-0.806,0.287c-0.576,0.229-0.979,0.461-1.439,0.748
	c-2.707,1.843-3.167,3.916-3.627,7.197C76.658,18.159,76.544,18.792,76.544,19.601z"/>
<path fill="#ed1c24" d="M100.49,52.645l0.113-1.095c-0.634-0.055-1.034,0-1.382,0.173c-0.401,0.521-1.091,5.409-1.265,6.448
	c1.957,0.116,1.728-0.403,2.133-2.764c0.173-1.15,0.863-2.936,2.187-2.648c0.288,0.982-0.574,4.145-0.633,5.412
	c3.226,0.288,0.921-3.396,3.338-5.241c0.29-0.23,0.691-0.344,0.923-0.114c0.344,0.692-0.577,4.261-0.633,5.301
	c1.955,0.287,1.842-0.981,2.415-4.493c0.172-1.151,0.059-2.13-1.093-2.302c-1.265-0.173-1.782,0.748-2.532,1.149
	c-0.171-0.863-0.691-1.324-1.725-1.092c-0.751,0.171-1.442,0.862-1.785,1.264h-0.059L100.49,52.645L100.49,52.645L100.49,52.645
	L100.49,52.645z"/>
<path fill="#ed1c24" d="M130.545,54.775c0.114-0.69,0.573-2.763,0.515-3.28c-7.309-1.443-7.08,5.349-5.578,6.499
	c1.263,0.921,2.364,0.058,3.166-0.633v-0.059c0.346,0.519,0.462,0.983,1.381,1.037c0.863,0.057,1.264-0.404,1.383-1.151
	C129.623,57.251,130.315,56.215,130.545,54.775z M128.7,55.753c-0.231,0.633-1.266,1.901-2.071,1.15
	c-0.692-0.688-0.578-4.776,2.646-4.487C129.216,53.218,128.931,55.006,128.7,55.753z"/>
<path fill="#ed1c24" d="M116.033,58.114l1.844,0.056c0.862-0.919,1.495-3.971,2.13-4.546v4.546c2.247,0.118,2.014-0.112,3.051-2.533
	c0.521-1.15,1.383-2.877,1.671-4.087c-2.012,0-1.726,0.462-2.361,2.073c-0.402,1.034-0.75,2.304-1.265,3.108l0.056-5.124
	c-2.188-0.174-1.956,0.633-3.339,4.261c-0.058,0.114-0.114,0.289-0.114,0.344l-0.23,0.344l-0.056,0.059v-5.067
	c-1.958-0.172-1.267,1.615-1.267,6.563h-0.121L116.033,58.114L116.033,58.114z"/>
<path fill="#ed1c24" d="M113.674,56.444c0,0.003,0,0.007,0.002,0.007c0.019,0,0.04-0.011,0.057-0.007H113.674z"/>
<path fill="#ed1c24" d="M114.764,52.933c-0.115-2.418-5.179-2.364-5.929,1.667c-0.461,2.595,0.863,4.15,3.397,3.691
	c0.402-0.063,0.98-0.346,1.212-0.523c0.4-0.286,0.573-0.688,0.229-1.316c-0.705,0.031-3.114,1.772-3.226-0.755
	c1.21-0.057,2.014-0.057,2.936-0.577C114.018,54.773,114.825,53.966,114.764,52.933z M112.581,54.315
	c-0.518,0.284-1.313,0.286-2.001,0.23h-0.015l0,0c0.002,0,0.009,0,0.015,0h0.044c0.115-0.864,1.379-2.822,2.364-1.844
	C113.501,53.218,112.865,54.14,112.581,54.315z"/>
<path fill="#ed1c24" d="M84.372,56.444c-2.245,2.014,4.949,3.167,4.778-0.402c-0.06-1.724-1.729-1.612-2.65-2.244
	c-0.804-0.576-0.229-1.264,0.864-1.151c0.977,0.114,1.44,0.69,1.901-0.462c-0.52-0.921-2.473-0.979-3.397-0.631
	c-1.093,0.401-1.956,1.723-0.979,2.876c0.805,0.921,2.707,0.921,2.592,1.954C87.367,57.998,84.372,56.444,84.372,56.444z"/>
<path fill="#ed1c24" d="M91.394,51.55c-0.229,0-0.519,0-0.691,0c-0.114,0-0.114,0-0.23,0.115c-0.114,0.171-0.169,0.69-0.114,1.034
	c0.058,0.057,0.402,0,0.69,0.057c-0.057,1.44-1.21,4.204-0.114,5.181c0.574,0.521,2.073,0.574,2.649,0.058
	c0.285-0.229,0.4-0.863,0-1.095c-0.233-0.112-0.982,0.462-1.443,0.062c-0.172-0.691,0.401-3.34,0.577-4.203
	c1.322-0.06,1.61,0.114,1.723-1.208c-0.52,0-0.98,0-1.495,0c0.057-0.519,0.114-0.981,0.174-1.499c-1.787,0-1.325,0.06-1.729,1.556
	V51.55L91.394,51.55L91.394,51.55z"/>
<path fill="#ed1c24" d="M94.733,58.169c1.9-0.055,1.554,0.118,2.073-2.589c0.229-1.324,0.52-2.706,0.634-4.088
	c-0.921,0-1.5-0.23-1.728,0.629l-1.034,6.045L94.733,58.169L94.733,58.169z"/>
<path fill="#ed1c24" d="M80.632,58.169c0.746,0.059,1.439,0.175,1.726-0.574l1.035-6.042c-1.902,0-1.554-0.116-2.073,2.647
	c-0.23,1.265-0.521,2.701-0.633,4.028L80.632,58.169z"/>
<path fill="#ed1c24" d="M81.839,50.744c0.519,0,0.98,0.061,1.38-0.114c0.404-0.345,0.462-0.863,0.462-1.554
	c-1.441,0-1.844,0.113-1.899,1.668H81.839L81.839,50.744z"/>
<path fill="#ed1c24" d="M95.939,50.744l1.443-0.057c0.344-0.519,0.461-0.804,0.52-1.612c-1.554,0-1.784,0.113-1.901,1.668H95.939
	L95.939,50.744z"/>
</svg>
