<?xml version="1.0" encoding="UTF-8" standalone="no"?>
<svg
   xmlns:dc="http://purl.org/dc/elements/1.1/"
   xmlns:cc="http://creativecommons.org/ns#"
   xmlns:rdf="http://www.w3.org/1999/02/22-rdf-syntax-ns#"
   xmlns:svg="http://www.w3.org/2000/svg"
   xmlns="http://www.w3.org/2000/svg"
   xmlns:sodipodi="http://sodipodi.sourceforge.net/DTD/sodipodi-0.dtd"
   xmlns:inkscape="http://www.inkscape.org/namespaces/inkscape"
   version="1.1"
   width="252.14954"
   height="176.4453"
   id="svg2"
   inkscape:version="0.91 r13725"
   viewBox="0 0 252.14953 176.4453"
   sodipodi:docname="wonderful-indonesia-2013.svg">
  <metadata
     id="metadata46">
    <rdf:RDF>
      <cc:Work
         rdf:about="">
        <dc:format>image/svg+xml</dc:format>
        <dc:type
           rdf:resource="http://purl.org/dc/dcmitype/StillImage" />
        <dc:title></dc:title>
      </cc:Work>
    </rdf:RDF>
  </metadata>
  <defs
     id="defs44" />
  <sodipodi:namedview
     pagecolor="#ffffff"
     bordercolor="#666666"
     borderopacity="1"
     objecttolerance="10"
     gridtolerance="10"
     guidetolerance="10"
     inkscape:pageopacity="0"
     inkscape:pageshadow="2"
     inkscape:window-width="1366"
     inkscape:window-height="705"
     id="namedview42"
     showgrid="false"
     inkscape:zoom="1.0396203"
     inkscape:cx="132.61699"
     inkscape:cy="60.693044"
     inkscape:window-x="-8"
     inkscape:window-y="-8"
     inkscape:window-maximized="1"
     inkscape:current-layer="svg2"
     fit-margin-top="0"
     fit-margin-left="0"
     fit-margin-right="0"
     fit-margin-bottom="0" />
  <g
     id="g3394"
     transform="translate(-165.0208,-243.0148)">
    <path
       inkscape:connector-curvature="0"
       id="path10"
       style="fill:#6d716f;fill-rule:evenodd"
       d="m 204.5741,372.0607 -0.0187,0 c -0.8459,0.002 -1.6418,-0.3128 -2.3903,-0.9539 -1.466,-1.458 -2.1988,-3.3568 -2.1988,-5.6979 0,-1.3553 0.2733,-2.6188 0.8198,-3.7901 0.9688,-1.9123 2.225,-2.8744 3.7693,-2.8796 l 0.0187,0 c 0.985,0.005 1.9173,0.484 2.8028,1.4401 1.1369,1.479 1.7074,3.1312 1.7097,4.9592 l 0,0.5258 c -0.002,1.0476 -0.2391,2.172 -0.7008,3.3597 -1.0246,2.0306 -2.2964,3.039 -3.8117,3.0367 z m -39.4773,-15.3201 4.726,0 c 1.1455,0 2.0806,1.0299 2.7999,3.0888 l 3.794,8.5171 c 0.1086,-0.0993 1.3333,-2.9899 3.6587,-8.6782 -0.1279,-0.2544 -0.2401,-0.4723 -0.3362,-0.6528 -0.3025,-0.3732 -0.662,-0.6046 -1.0901,-0.7015 l -0.5228,0.0343 -1.6367,0 -0.0729,-0.0707 0,-1.4609 0.0729,-0.079 4.7261,0 c 0.0317,10e-5 0.0633,10e-4 0.0947,0.003 l 1.9277,0 0.0395,0.0366 0.0394,0 -0.3754,0.93 c 0.3999,0.5077 0.7577,1.215 1.074,2.1222 l 3.7879,8.5171 c 0.1184,-0.1006 1.3686,-3.0686 3.7544,-8.9058 0.1809,-0.4387 0.2733,-0.7693 0.2733,-0.9925 l 0,-0.0999 c 0,-0.4073 -0.2681,-0.688 -0.7961,-0.8303 l -1.1667,0 -0.0999,-0.0789 0,-0.6224 0.0999,-0.079 4.7625,0 0.0373,0.0372 0.0388,0 c -3.3204,8.2349 -5.6898,13.9409 -7.1158,17.1325 l -0.3864,0.2099 c -0.4177,-0.002 -0.8116,-0.554 -1.187,-1.6523 -2.0958,-4.6297 -3.7009,-8.1204 -4.8152,-10.4715 -2.234,5.4794 -3.9015,9.4525 -5.0019,11.9139 l -0.3888,0.213 c -0.42,0 -0.8116,-0.5496 -1.1869,-1.6554 -3.3336,-7.3681 -5.4298,-11.8553 -6.2787,-13.4495 -0.3023,-0.3761 -0.6673,-0.6068 -1.0901,-0.7015 l -0.525,0.0418 -1.6344,0 -0.076,-0.0782 0,-1.4609 0.076,-0.0761 z m 62.2258,-0.3916 0.3707,0 c 1.7596,0 3.2778,0.6545 4.5683,1.9442 1.2525,1.4028 1.8831,3.0209 1.8831,4.8409 l 0,6.397 c 0,1.8176 0.3575,2.8974 1.0694,3.2259 -0.005,0.0862 0.2516,0.1651 0.7802,0.2545 l 2.0195,0 0.0582,0.0574 0,0.933 -0.0582,0.0604 -4.8043,0 c -1.321,-0.005 -2.1833,-0.9697 -2.5823,-2.8974 -0.0574,-0.2212 -0.0842,-0.4543 -0.0761,-0.6993 l 0,-6.8848 c -0.008,-2.2644 -0.8197,-3.7329 -2.4348,-4.4134 -0.6649,-0.2256 -1.3531,-0.344 -2.0783,-0.3493 -1.3366,0.0448 -2.6532,0.7119 -3.945,2.0016 -0.4811,0.5913 -0.72,1.1721 -0.72,1.7498 l 0,11.4928 -0.0582,0.0581 -3.5013,0 -0.0736,-0.0581 0,-13.4942 c -0.005,-1.1378 -0.4729,-1.91 -1.4,-2.3122 l -0.6836,-0.0997 -1.6337,0 -0.0572,-0.0551 0,-1.5183 0.0572,-0.0574 4.4157,0 c 1.1088,0 1.9733,0.6144 2.5853,1.8467 l 0.1734,0.6039 c 1.9041,-1.7126 3.9482,-2.5898 6.1256,-2.627 z m 64.1095,0.9382 0.2516,-0.0425 c 0.2287,-0.0394 0.4394,0.2442 0.6256,0.8378 l -0.0186,0.137 c -0.0731,0.0499 -0.3067,0.1654 -0.7223,0.3283 -0.2629,0.1207 -0.5332,0.2413 -0.817,0.3701 -0.3022,0.1319 -0.8011,0.4415 -1.4996,0.933 -0.4675,0.2622 -0.904,0.6329 -1.3187,1.1082 -0.4439,0.6359 -0.6464,1.2135 -0.6047,1.7289 l 0,11.3929 -0.0364,0.0395 -3.4625,0 -0.0396,-0.0395 0,-12.8486 c 0,-1.3583 -0.4356,-2.2116 -1.3001,-2.5661 -0.2628,-0.0602 -0.5041,-0.0924 -0.7379,-0.0975 l -1.6159,0 -0.0395,-0.0395 0,-1.5368 0.0395,-0.021 4.2377,0 c 0.974,0.008 1.7573,0.4572 2.3509,1.3449 0.2701,0.51 0.3991,0.9747 0.3938,1.3977 0.9405,-0.7879 1.9413,-1.4475 3.0076,-1.9808 0.505,-0.268 0.9405,-0.42 1.3061,-0.446 z m 9.9973,-8.488 4.5289,0 0.0394,0.0424 0,1.458 -0.0394,0.0395 -1.8861,0 c -0.7141,0.005 -1.2473,0.4727 -1.5913,1.4133 -0.1371,0.4334 -0.2003,1.0715 -0.1944,1.9174 l 0,2.5556 2.8155,0 0.0425,0.0424 0,1.7491 -0.0425,0.0425 -2.8155,0 0,12.2119 c -0.006,1.8049 -0.6702,3.0135 -2.0023,3.6204 -0.4042,0.1519 -0.7639,0.2256 -1.0715,0.2256 l -4.158,0 -0.0423,-0.0364 0,-1.8945 0.0423,-0.0416 1.8467,0 c 1.0872,0.005 1.7335,-0.72 1.9413,-2.1646 l 0.023,-0.4782 0,-11.4247 -3.811,0 -0.0423,-0.0179 0,-1.7707 0.0423,-0.0418 3.2861,0 0.5249,-0.0215 0,-3.68 c -0.007,-0.8042 0.2159,-1.6553 0.6597,-2.5585 0.4885,-0.788 1.1193,-1.1825 1.904,-1.1877 z m 16.4973,25.3181 -0.3469,0 c -1.7574,-0.005 -3.2727,-0.6434 -4.552,-1.9226 -1.251,-1.3872 -1.8705,-2.9949 -1.8652,-4.823 l 0,-6.3546 c -0.005,-1.7999 -0.3597,-2.8609 -1.0716,-3.1916 0,-0.0871 -0.2605,-0.1786 -0.7752,-0.271 l -2.0015,0 -0.0581,-0.0604 0,-0.9113 0.0581,-0.0604 4.7627,0 c 1.3209,0 2.1773,0.9643 2.5637,2.8788 0.0656,0.2235 0.0946,0.4602 0.0968,0.6992 l 0,6.8245 c -0.002,2.2592 0.796,3.7224 2.3963,4.3948 0.6672,0.2361 1.3604,0.3544 2.0588,0.347 1.0328,0.007 2.1937,-0.6336 3.4781,-1.9233 0.4782,-0.5779 0.7202,-1.1609 0.7202,-1.7492 l 0,-11.4114 0.0574,-0.0604 3.4811,0 0.0603,0.0604 0,13.3943 c -0.005,1.1432 0.4593,1.9153 1.3976,2.3143 l 0.6799,0.0768 1.6129,0 0.0603,0.0574 0,1.516 -0.0603,0.0603 -4.3734,0 c -1.1033,0.005 -1.9575,-0.6018 -2.5666,-1.8288 l -0.1758,-0.6009 c -1.8912,1.694 -3.7752,2.5399 -5.6376,2.5451 z m 12.5247,-24.3568 4.3345,0 c 0.9353,0.006 1.7179,0.6887 2.3538,2.0597 0.3366,0.9382 0.5071,2.0834 0.5071,3.4231 l 0,13.2579 c 0,2.3458 0.5094,3.7224 1.534,4.1216 l 0.4862,0.0574 1.7521,0 0.0574,0.0789 0,1.2845 -0.0574,0.0768 -4.4551,0 c -1.248,0 -2.0992,-0.9332 -2.5459,-2.8007 -0.2205,-0.9165 -0.3307,-1.7997 -0.3307,-2.6425 l 0,-13.2582 c 0,-1.6047 -0.4414,-2.6896 -1.3239,-3.2496 -0.2442,-0.0864 -0.4602,-0.1311 -0.6381,-0.1362 l -1.674,0 -0.055,-0.0791 0,-2.1325 0.055,-0.0611 z m -60.641,19.2263 c -0.5176,0.005 -1.0984,-0.184 -1.7291,-0.5621 -1.4997,-1.2026 -2.2428,-2.8944 -2.2376,-5.0747 -0.005,-1.0558 0.1942,-2.0701 0.6038,-3.0315 0.8876,-1.7602 2.0255,-2.6404 3.4023,-2.6456 0.6694,0.005 1.3343,0.263 2.0014,0.7773 1.3345,1.251 1.9964,2.8639 2.004,4.8416 -0.008,1.0381 -0.2019,2.0336 -0.5832,2.9741 -0.8874,1.82 -2.0379,2.7261 -3.4616,2.7209 z m 5.4237,5.0755 0,-0.9539 -0.0573,-0.0552 -3.5415,0 c -0.3305,0 -0.74,-0.0841 -1.2449,-0.2547 -1.563,-0.5673 -2.6374,-1.3997 -3.2049,-2.4878 l 0,-0.0208 c 1.0567,0.2785 2.1126,0.4148 3.1684,0.4074 1.7595,0.007 3.2309,-0.3679 4.4134,-1.1275 1.9933,-1.3946 2.9867,-3.4431 2.9941,-6.1409 -0.007,-1.6739 -0.3463,-3.053 -1.032,-4.1431 -1.7105,-2.1826 -4.0038,-3.2808 -6.8796,-3.2861 l -0.2919,0 c -1.6232,0.005 -3.2757,0.5935 -4.96,1.7708 -0.4015,0.2702 -0.8005,0.6382 -1.1817,1.0901 -1.0559,1.0529 -1.5839,2.4535 -1.5786,4.2004 l 0,0.6383 c -0.005,2.8839 0.5227,5.2696 1.5786,7.1558 0.3969,0.6404 0.9561,1.2159 1.6679,1.7305 1.7834,1.0194 3.3754,1.5317 4.7657,1.5348 l 5.327,0 0.0573,-0.0581 z m -14.5263,0 0,-0.8751 -0.0817,-0.0603 -0.6673,0 c -0.1602,-0.005 -0.3671,-0.0499 -0.6121,-0.1363 -1.6389,-0.7854 -2.4557,-2.3961 -2.4506,-4.8206 l 0,-14.947 c -0.005,-1.1035 -0.2472,-1.9674 -0.7378,-2.5876 -0.6152,-0.5302 -1.1722,-0.793 -1.671,-0.7982 l -1.9435,0.0394 -2.8035,0 -0.0551,0.0574 0,0.5861 0.0551,0.055 1.4185,0 c 1.4766,0 2.2124,1.143 2.2176,3.4231 l 0,5.6368 -1.6919,-1.4186 c -1.3344,-0.7483 -2.6561,-1.1235 -3.9666,-1.1264 l -0.6412,0 c -1.5972,0.003 -3.1653,0.5912 -4.7023,1.7706 -2.1981,1.8281 -3.2913,4.0791 -3.286,6.7642 l 0,0.3097 c -0.005,2.4694 0.796,4.5133 2.4088,6.1233 1.5005,1.3766 3.6279,2.0595 6.3786,2.0626 l 0.1757,0 c 1.0954,-0.003 2.2301,-0.3917 3.4014,-1.167 0.6463,-0.4519 1.2689,-1.0424 1.8683,-1.7676 l 0.0552,0 0,0.872 0.0395,0.2522 c 0.3514,1.2057 1.2159,1.8073 2.6083,1.8104 l 4.6019,0 0.0817,-0.0581 z m -11.9578,-1.8676 -0.3284,0 c -0.9666,0.005 -1.8199,-0.1891 -2.5661,-0.583 -1.8339,-0.983 -2.7454,-2.9399 -2.7424,-5.8715 l 0,-0.583 c -0.003,-0.7387 0.1259,-1.5451 0.3857,-2.4275 0.8958,-2.4722 2.4961,-3.712 4.8051,-3.7142 l 0.3888,0 c 1.0975,0.002 2.1668,0.4543 3.2069,1.3604 0.8541,0.9063 1.3479,1.6024 1.4768,2.0783 l 0,6.1834 c -1.2481,2.3746 -2.7902,3.5623 -4.6264,3.5571 z m -44.1344,1.9226 c 2.2333,-0.0529 4.2057,-0.9144 5.9288,-2.5823 1.6845,-1.7991 2.5251,-3.8454 2.5304,-6.144 -0.005,-2.1333 -0.7358,-4.0953 -2.1989,-5.8714 -0.8959,-0.8802 -1.6502,-1.4841 -2.2541,-1.8095 l 0.3099,-0.1161 c 1.1064,-0.528 1.6627,-1.5206 1.6709,-2.9734 l -0.0187,-0.7378 -0.0395,-0.0216 -0.0178,0 c -0.0551,0.318 -0.2107,0.612 -0.4675,0.8936 -0.2994,0.3127 -0.7462,0.6141 -1.3242,0.8957 -0.8197,0.3701 -1.962,0.7037 -3.4201,1.0113 l -0.9537,-0.0366 c -1.9568,0 -3.7641,0.6537 -5.4246,1.9621 -2.1148,1.881 -3.1677,4.1007 -3.1677,6.6668 l 0,0.2337 c 0,1.8289 0.5882,3.5645 1.7677,5.2095 1.8937,2.2852 4.1818,3.4231 6.8641,3.4231 0.0707,0 0.1444,-0.003 0.215,-0.003 z" />
    <path
       inkscape:connector-curvature="0"
       id="path12"
       style="fill:#1b1918;fill-rule:evenodd"
       d="m 266.9442,415.8531 -0.0343,0 c -1.3768,0.005 -2.6717,-0.5064 -3.8929,-1.5526 -2.3909,-2.3717 -3.5779,-5.4663 -3.5779,-9.2728 0,-2.2064 0.4468,-4.263 1.332,-6.1678 1.581,-3.1178 3.6221,-4.6755 6.1388,-4.6837 l 0.0343,0 c 1.5973,0.008 3.1155,0.7826 4.5549,2.3433 1.852,2.4007 2.7768,5.091 2.7842,8.0673 l 0,0.8533 c -0.007,1.7076 -0.3909,3.5364 -1.1401,5.4746 -1.6678,3.2994 -3.7327,4.9436 -6.199,4.9384 z m -101.8288,-24.6823 7.0583,0 c 1.5213,0.005 2.7901,0.7991 3.8251,2.3725 0.5458,1.0849 0.8274,2.3879 0.8274,3.9218 l 0,15.2859 c 0,2.7029 0.8303,4.2792 2.4981,4.7127 l 0.7909,0.0946 2.8474,0 0.0969,0.0684 0,1.4841 -0.0969,0.0947 -7.2451,0 c -2.0329,0 -3.4201,-1.0724 -4.1456,-3.2288 -0.3677,-1.0507 -0.5405,-2.0619 -0.5405,-3.0366 l 0,-15.2515 c 0,-1.8519 -0.7148,-3.1105 -2.1489,-3.7671 -0.4044,-0.1028 -0.7514,-0.1579 -1.0455,-0.1579 l -2.7216,0 -0.0946,-0.0624 0,-2.4694 0.0946,-0.061 z m 37.8168,-0.7275 0.5985,0 c 2.8663,0 5.3407,1.0589 7.4367,3.1603 2.041,2.2881 3.0709,4.9152 3.0709,7.8803 l 0,10.4107 c 0,2.9577 0.5756,4.718 1.7395,5.2542 -0.008,0.1332 0.4095,0.2703 1.2658,0.4095 l 3.2913,0 0.0946,0.0946 0,1.5204 -0.0946,0.0946 -7.8172,0 c -2.1513,-0.007 -3.557,-1.5733 -4.2057,-4.715 -0.0945,-0.3544 -0.1339,-0.7357 -0.1286,-1.14 l 0,-11.1984 c -0.005,-3.6905 -1.3294,-6.0785 -3.9534,-7.1842 -1.0849,-0.3731 -2.2123,-0.56 -3.3888,-0.5705 -2.1751,0.0708 -4.3188,1.1534 -6.4232,3.2578 -0.7826,0.9583 -1.1713,1.9092 -1.1713,2.8475 l 0,18.7028 -0.0945,0.0975 -5.6979,0 -0.1258,-0.0975 0,-21.9606 c -0.008,-1.8519 -0.767,-3.1102 -2.2749,-3.764 l -1.1087,-0.158 -2.6554,0 -0.0976,-0.0968 0,-2.4668 0.0976,-0.0947 7.1842,0 c 1.7997,0 3.2071,1.006 4.2026,3.0053 l 0.2839,0.9823 c 3.1028,-2.7872 6.4253,-4.2109 9.972,-4.2713 z m 99.8689,0 0.6016,0 c 2.8632,0 5.3376,1.0589 7.4366,3.1603 2.0389,2.2881 3.0679,4.9152 3.0679,7.8803 l 0,10.4107 c 0,2.9577 0.5756,4.718 1.7417,5.2542 -0.0103,0.1332 0.4125,0.2703 1.2638,0.4095 l 3.2911,0 0.0947,0.0946 0,1.5204 -0.0947,0.0946 -7.8171,0 c -2.149,-0.007 -3.5594,-1.5733 -4.2086,-4.715 -0.0947,-0.3544 -0.1341,-0.7357 -0.1229,-1.14 l 0,-11.1984 c -0.0112,-3.6905 -1.332,-6.0785 -3.9562,-7.1842 -1.0879,-0.3731 -2.2094,-0.56 -3.3866,-0.5705 -2.1751,0.0708 -4.321,1.1534 -6.4223,3.2578 -0.7828,0.9583 -1.1714,1.9092 -1.1714,2.8475 l 0,18.7028 -0.0947,0.0975 -5.6978,0 -0.1266,-0.0975 0,-21.9606 c -0.007,-1.8519 -0.767,-3.1102 -2.2771,-3.764 l -1.1087,-0.158 -2.6606,0 -0.0945,-0.0968 0,-2.4668 0.0945,-0.0947 7.1842,0 c 1.8072,0 3.2124,1.006 4.2109,3.0053 l 0.2837,0.9823 c 3.1021,-2.7872 6.4254,-4.2109 9.9691,-4.2713 z m 53.1628,0.9167 9.0182,0 0.0947,0.0946 0,2.4066 -0.0947,0.0916 -8.5111,0 c -1.3977,0 -2.4952,0.5412 -3.2913,1.6181 -0.1994,0.4259 -0.2941,0.8041 -0.2867,1.1347 l 0,0.0946 c -0.007,1.674 1.4082,3.2526 4.24,4.747 0.8251,0.5071 2.4222,1.379 4.8095,2.5957 0.9197,0.578 1.9577,1.4469 3.1029,2.6264 1.2554,1.6709 1.8913,3.0924 1.8966,4.2713 -0.005,2.175 -0.2368,3.4655 -0.6939,3.8616 -1.3187,1.907 -2.992,3.1735 -5.0301,3.7961 -0.9509,0.2629 -1.9784,0.3887 -3.0737,0.3806 l -5.0278,0 -0.0946,-0.0946 0,-1.4521 0.0946,-0.0976 4.3978,0 c 1.8987,0.005 3.3516,-0.7535 4.3628,-2.28 0.2576,-0.4966 0.3812,-0.9643 0.3812,-1.3924 l 0,-0.4729 c 0,-1.3709 -0.8511,-2.6427 -2.5614,-3.8326 -2.6846,-1.1058 -5.3093,-2.5899 -7.8806,-4.4604 -2.4535,-2.1438 -3.6806,-4.2316 -3.6724,-6.2675 l 0,-0.376 c -0.008,-1.636 0.796,-3.3382 2.4058,-5.0963 1.5765,-1.2554 3.3784,-1.8862 5.4142,-1.8965 z m 11.5507,-0.1892 7.0554,0 c 1.516,0.005 2.7924,0.7991 3.8274,2.3725 0.5444,1.0849 0.825,2.3879 0.825,3.9218 l 0,15.2859 c 0,2.7029 0.8303,4.2792 2.4953,4.7127 l 0.7939,0.0946 2.8473,0 0.0969,0.0684 0,1.4841 -0.0969,0.0947 -7.2451,0 c -2.033,0 -3.4149,-1.0724 -4.1447,-3.2288 -0.3657,-1.0507 -0.5391,-2.0619 -0.5391,-3.0366 l 0,-15.2515 c 0,-1.8519 -0.7223,-3.1105 -2.1513,-3.7671 -0.4043,-0.1028 -0.7535,-0.1579 -1.0403,-0.1579 l -2.7238,0 -0.0976,-0.0624 0,-2.4694 0.0976,-0.061 z m 44.3628,28.1291 0,-1.647 -0.0313,-0.0262 -1.458,0 c -0.4892,0.002 -0.9642,-0.1868 -1.4236,-0.5755 -0.3397,-0.347 -0.5912,-0.7253 -0.7596,-1.1371 -0.3255,-0.9017 -0.4833,-1.8207 -0.475,-2.7537 l 0,-9.9973 c 0.9896,-0.1713 2.0588,-0.3553 3.1966,-0.5705 0.8355,-0.1257 1.5028,-0.2598 1.9964,-0.4095 0.6091,-0.2077 1.1586,-0.4862 1.6761,-0.8271 1.6598,-1.1379 2.4983,-2.4753 2.4983,-4.0167 0,-0.5859 -0.1265,-1.1847 -0.3783,-1.8019 l -0.0342,0 0,0.0945 c -0.008,0.3649 -0.1103,0.7669 -0.3159,1.2025 -0.4279,0.8721 -1.2814,1.537 -2.5607,1.9912 -0.6172,0.1765 -2.6426,0.6173 -6.0783,1.3322 l -0.0291,-0.8251 c 0,-0.4988 -0.0945,-1.2003 -0.2868,-2.12 -0.1257,-0.5354 -0.3074,-1.1004 -0.5383,-1.6753 -0.8666,-1.9547 -2.335,-3.3993 -4.3977,-4.3375 -1.4156,-0.5697 -2.6479,-0.8564 -3.7009,-0.8564 l -7.4053,0 -0.0312,0.0343 0,2.6269 0.0312,0.0343 6.173,0.1892 c 0.9643,0.0283 1.5079,0.0709 1.6449,0.1259 0.6723,0.2129 1.2003,0.5861 1.5808,1.1057 0.2919,0.452 0.5228,0.8489 0.6963,1.2035 0.4602,1.2925 0.6909,2.4273 0.6961,3.4177 l 0,2.2458 c -0.9322,0.1758 -1.7543,0.3097 -2.4661,0.4096 -0.6441,0 -1.6314,0.1943 -2.974,0.5726 -1.7336,0.5309 -3.1968,1.0879 -4.4001,1.6733 -1.0112,0.4943 -1.9516,1.0296 -2.8162,1.6157 -1.376,0.9322 -2.4297,1.9547 -3.1624,3.0709 -0.8883,1.4551 -1.3321,2.8475 -1.3321,4.1744 l 0,0.128 c 0,1.8206 0.8064,3.3815 2.4379,4.6816 0.4333,0.3254 0.8698,0.5881 1.2979,0.796 1.242,0.4646 2.4744,0.7013 3.7008,0.6962 3.3471,0.005 6.628,-1.6077 9.8402,-4.8446 l 0.0664,0.3783 c 0.1414,0.7044 0.2941,1.2138 0.4407,1.519 0.7543,2.091 2.1044,3.123 4.0486,3.1364 l 5.0016,0 0.0313,-0.0343 z m -16.8018,-3.6382 c -1.1422,0.007 -2.0485,-0.4044 -2.7216,-1.2376 -0.6776,-0.9874 -1.0186,-2.0089 -1.0134,-3.0655 l 0,-0.0343 c -0.005,-0.9241 0.2755,-1.8252 0.8563,-2.721 0.4126,-0.5993 0.9716,-1.1847 1.6784,-1.7365 0.6463,-0.5256 1.8414,-1.0714 3.5727,-1.65 1.3686,-0.4595 2.9339,-0.8587 4.7149,-1.2004 l 0,7.6577 -4.2398,3.1655 c -0.9979,0.5539 -1.9413,0.8295 -2.8475,0.8221 z m -63.0664,-4.7812 c -0.8458,0.0104 -1.7885,-0.2995 -2.8184,-0.9138 -2.4351,-1.9547 -3.6465,-4.7106 -3.6383,-8.2616 -0.008,-1.723 0.3151,-3.3703 0.9822,-4.9332 1.4453,-2.8608 3.2943,-4.295 5.5348,-4.3032 1.0932,0.008 2.1781,0.4259 3.2601,1.2636 2.1674,2.0358 3.2525,4.6578 3.2628,7.8782 -0.0103,1.6918 -0.3283,3.307 -0.9538,4.8439 -1.4364,2.9576 -3.3122,4.4365 -5.6294,4.4261 z m 8.8269,8.2646 0,-1.5526 -0.0947,-0.0975 -5.758,0 c -0.5386,0 -1.2088,-0.1341 -2.0256,-0.4095 -2.5533,-0.9272 -4.295,-2.2778 -5.2197,-4.0509 l 0,-0.0312 c 1.7208,0.4461 3.4385,0.6724 5.1564,0.6641 2.8632,0.008 5.2617,-0.5986 7.185,-1.8362 3.2413,-2.2719 4.8647,-5.6078 4.8699,-9.9952 -0.005,-2.7237 -0.5621,-4.9696 -1.6733,-6.7433 -2.787,-3.5594 -6.5229,-5.3375 -11.2066,-5.3457 l -0.4728,0 c -2.642,0.008 -5.3323,0.9643 -8.0695,2.8795 -0.6568,0.4438 -1.3055,1.0372 -1.9309,1.7699 -1.7178,1.7158 -2.5712,3.9936 -2.5637,6.8359 l 0,1.0423 c -0.007,4.6919 0.8459,8.5767 2.5637,11.6453 0.6494,1.0455 1.5607,1.9755 2.7246,2.8162 2.8996,1.6628 5.4872,2.493 7.7486,2.5004 l 8.6719,0 0.0947,-0.0915 z m -87.0845,0.2203 0,-1.4266 -0.1257,-0.0947 -1.0902,0 c -0.2629,-0.0126 -0.5965,-0.0833 -1.0008,-0.2174 -2.6636,-1.2844 -3.9928,-3.901 -3.9853,-7.8521 l 0,-24.333 c -0.007,-1.7863 -0.4043,-3.1937 -1.2033,-4.2078 -0.9956,-0.8646 -1.9071,-1.2928 -2.7187,-1.298 l -3.1654,0.0604 -4.5572,0 -0.0945,0.0974 0,0.9481 0.0945,0.0945 2.3114,0 c 2.3955,0 3.5966,1.8623 3.604,5.572 l 0,9.1754 -2.7499,-2.3091 c -2.178,-1.2189 -4.3293,-1.8281 -6.4575,-1.8363 l -1.0424,0 c -2.6032,0.008 -5.1618,0.9643 -7.66,2.8795 -3.5757,2.9763 -5.3562,6.6436 -5.3488,11.0116 l 0,0.5071 c -0.007,4.0217 1.2981,7.342 3.9273,9.9691 2.4327,2.2383 5.8975,3.3463 10.3787,3.3546 l 0.2813,0 c 1.7886,-0.008 3.6331,-0.633 5.5401,-1.9018 1.0506,-0.7357 2.0649,-1.6918 3.0396,-2.8795 l 0.0916,0 0,1.4267 0.0655,0.4125 c 0.5704,1.9569 1.9784,2.9338 4.24,2.9421 l 7.5,0 0.1257,-0.0947 z m -19.4623,-3.0395 -0.5385,0 c -1.563,0.008 -2.9607,-0.3068 -4.1744,-0.9479 -2.9837,-1.6002 -4.4759,-4.7864 -4.4654,-9.5596 l 0,-0.9456 c -0.0105,-1.2056 0.2099,-2.5192 0.6328,-3.9586 1.4581,-4.0141 4.059,-6.0365 7.818,-6.0418 l 0.6359,0 c 1.7834,0.005 3.525,0.7408 5.222,2.2167 1.3895,1.4744 2.1878,2.6062 2.4007,3.3837 l 0,10.0636 c -2.0328,3.8698 -4.5415,5.7977 -7.5311,5.7895 z m 32.5447,2.8796 c 3.6986,-0.0425 6.9741,-1.4447 9.8216,-4.2089 2.7396,-2.9285 4.1081,-6.2571 4.1134,-10.0003 -0.005,-3.4729 -1.1921,-6.6615 -3.575,-9.5565 -1.455,-1.4319 -2.6822,-2.4111 -3.6695,-2.9398 l 0.5071,-0.1891 c 1.8021,-0.8638 2.7104,-2.4768 2.7186,-4.8439 l -0.0291,-1.2003 -0.0655,-0.0313 -0.0313,0 c -0.0841,0.5145 -0.3387,0.9955 -0.7595,1.4528 -0.4884,0.5092 -1.2085,0.9977 -2.1511,1.455 -1.3374,0.6039 -3.1968,1.1504 -5.5691,1.6471 l -1.5497,-0.0633 c -3.1892,0 -6.1341,1.0693 -8.8319,3.1945 -3.441,3.0627 -5.159,6.6747 -5.159,10.8544 l 0,0.3806 c 0,2.9741 0.9585,5.8058 2.8818,8.482 3.0761,3.7151 6.8037,5.567 11.1695,5.567 0.0603,0 0.1207,0 0.1787,0 z" />
    <g
       id="g14">
      <path
         inkscape:connector-curvature="0"
         id="path16"
         style="fill:#4a8fc7;fill-rule:evenodd"
         d="m 351.5245,286.4871 c 0,0 1.3872,-3.9138 2.8847,-11.5477 1.2077,-6.1313 0.9188,-12.3125 0.6776,-17.2747 -0.4364,-4.1476 -3.0396,-7.4813 -8.803,-9.9036 0,0 -5.4061,-1.563 -10.2156,1.3269 l -2.8639,1.8914 c 0,0 2.2228,-2.8348 3.5072,-3.8192 1.2979,-1.0038 2.913,-1.8683 4.7701,-2.0969 1.9733,-0.2465 3.9302,0.0633 6.0397,0.35 5.4924,0.6694 10.0607,2.8445 13.2582,-2.3985 0,0 0.2256,6.2281 -6.7173,6.0546 l -0.184,-0.0126 c 1.219,1.1266 2.6219,2.5794 3.5489,4.2213 4.0248,7.1477 6.7456,11.5373 2.4275,47.5751 -1.0849,9.0711 -4.9912,11.028 -5.0121,26.1611 -0.0208,15.1286 11.8233,32.4264 13.9723,34.9298 2.1512,2.5035 -20.458,-19.1258 -17.198,-41.8065 0,0 -6.6935,48.6184 29.844,66.0658 0,0 -39.5294,-6.625 -39.1355,-53.9037 0.0655,-8.0748 1.6419,-13.2127 3.5013,-18.8816 -11.7764,12.0071 -32.9149,15.393 -32.9149,15.393 0,0 8.217,-2.2771 21.4438,-11.5425 8.217,-5.7605 12.2805,-15.6611 14.1271,-21.8921 0.9934,-3.368 3.0419,-8.8894 3.0419,-8.8894 z" />
      <path
         inkscape:connector-curvature="0"
         id="path18"
         style="fill:#d42d78;fill-rule:evenodd"
         d="m 385.6188,265.7581 c 1.3478,-0.1914 1.3895,-0.2361 2.9867,-0.2837 10.8411,-0.3128 13.9514,6.654 14.2381,10.8045 0.1132,1.6732 -0.5912,6.3152 -4.5236,6.8298 0,0 2.388,-1.1691 2.5272,-4.6547 0.21,-5.1275 -2.9792,-9.78 -12.8768,-9.9296 -3.4521,-0.0499 -7.6265,1.2055 -10.6549,2.3195 2.4744,-0.4676 3.974,-0.9248 7.9459,-0.2785 11.7875,1.9331 8.5722,12.3385 8.5722,12.3385 0,0 2.2875,-10.1687 -10.366,-10.4628 -5.6607,-0.1318 -12.2678,2.327 -15.8428,5.7895 -4.531,4.3479 -6.8007,12.3936 -6.4596,18.8243 0.9457,18.0758 12.6587,20.2062 12.6587,20.2062 0,0 -6.9057,1.4394 -13.3445,-11.8791 0.3969,2.8579 1.0454,5.6503 1.9077,8.325 0.6352,2.8631 3.254,11.8783 12.7034,22.9115 -10.5104,-7.7233 -20.9732,-22.5571 -20.2748,-40.7223 0.111,-2.9651 0.665,-6.1596 1.2637,-9.0361 2.4409,-10.9334 12.3042,-20.729 21.5719,-25.8118 9.3965,-5.1566 33.8397,-9.0182 38.9121,8.8603 0.8563,3.0188 1.3165,7.9936 -2.2302,10.9908 -3.811,3.2205 -8.6265,0.9404 -9.4746,-1.2138 -0.8541,-2.1534 -0.2554,-4.4104 0.8853,-5.03 1.1348,-0.6254 1.6099,0.0239 1.8676,0.6777 0.2628,0.659 -0.003,1.589 -0.56,1.8965 -0.5592,0.3024 -1.4632,-0.1891 -1.5756,-0.7431 0,0 -0.4863,1.3135 0.5748,2.5451 1.0641,1.2272 2.3277,1.1267 3.9905,0.1236 0.8407,-0.5018 3.2205,-3.0075 1.621,-7.0456 -1.6054,-4.0426 -8.4351,-9.9006 -20.9107,-7.7621 -1.6754,0.2912 -2.4193,0.4855 -5.1327,1.4104 z" />
      <path
         inkscape:connector-curvature="0"
         id="path20"
         style="fill:#f07e33;fill-rule:evenodd"
         d="m 339.8427,298.9775 c -12.3303,7.9571 -22.8303,7.2214 -28.2259,4.8468 -5.753,-2.5243 -6.6645,-5.3249 -5.9258,-6.6853 0.4781,-0.8876 1.3418,-1.0797 2.2011,-0.7484 0.7328,0.2837 1.1818,1.3158 0.7692,1.8519 -1.1526,1.4811 -2.2428,-0.1548 -2.2428,-0.1548 0,0 -0.8615,3.9137 9.7428,6.2251 7.8886,1.7312 21.9003,-2.7976 30.1016,-13.2262 0.2599,-0.4199 0.5123,-0.8429 0.7566,-1.2762 -5.4485,6.1543 -12.6617,10.0919 -16.2814,11.08 0,0 13.0243,-5.9473 19.2815,-17.5345 2.0648,-5.5639 3.152,-11.7607 3.0812,-18.2226 -0.0238,-2.0805 -0.1995,-3.9093 -0.4989,-5.5221 -1.9129,-8.2245 -6.3755,-10.6177 -9.0182,-11.34 -2.5116,-0.8303 -4.8758,-0.2472 -4.8758,-0.2472 0,0 3.4178,-3.0054 9.5357,-0.1892 6.4306,2.9555 12.1889,13.145 10.3787,30.4695 -5.4269,21.0202 -16.1838,32.8285 -37.8637,32.8285 -18.3775,0 -23.6293,-14.2016 -23.6293,-14.2016 0,0 10.7807,15.3282 30.4747,9.223 4.5943,-1.4237 8.7159,-3.9003 12.2387,-7.1767 z" />
      <path
         inkscape:connector-curvature="0"
         id="path22"
         style="fill:#68b32d;fill-rule:evenodd"
         d="m 287.9644,269.9377 c -8.908,5.272 -14.6633,14.2872 -15.1227,26.3316 -0.6598,17.2218 11.818,23.4268 11.818,23.4268 -15.0936,-5.5848 -15.3409,-20.6315 -14.2425,-29.6706 1.0953,-9.042 7.6361,-29.9095 33.5634,-32.9699 25.9273,-3.0582 41.0976,13.41 44.3263,19.6098 3.228,6.1938 10.36,20.3582 5.9652,34.0944 -4.3948,13.7354 -16.0579,18.8212 -16.0579,18.8212 0,0 11.1851,-6.1625 12.693,-24.2645 0.7721,-9.281 -3.8513,-21.3537 -12.4041,-28.8015 -1.4133,-1.2294 -3.843,-3.6956 -7.5602,-6.0836 -0.5488,-0.3046 -1.1192,-0.6017 -1.694,-0.8928 -5.17,-2.6085 -10.019,-4.1268 -14.5166,-4.7835 -3.3285,-0.3731 -7.0427,-0.3783 -11.1828,0.1392 -14.39,2.6427 -23.4313,14.5947 -25.2996,24.2697 -2.8154,14.5531 4.2161,23.4156 4.2161,23.4156 0,0 -5.9019,-2.5451 -5.9019,-18.6797 0,-7.6891 3.7693,-17.3849 11.4003,-23.9622 z" />
      <path
         inkscape:connector-curvature="0"
         id="path24"
         style="fill:#876dab;fill-rule:evenodd"
         d="m 301.4824,288.7224 c -3.5072,-6.0918 -0.557,-14.2008 8.1857,-15.454 12.1963,-1.7439 15.1755,3.7068 26.0717,2.2905 0.6486,-0.0842 2.8579,-0.3887 3.7671,-1.0797 -4.5058,1.4609 -10.7391,0.2606 -14.7608,-0.9561 -6.5118,-1.9309 -12.0258,-2.5452 -15.9924,-1.7521 -5.0672,0.7096 -7.8023,4.6442 -8.8209,6.9168 -1.3902,3.1103 -0.6962,7.9147 1.5496,10.0346 z m 37.2337,-36.2351 c -3.5333,-0.3917 -5.5721,2.251 -5.7895,2.9338 0.3045,-1.0402 2.0909,-5.9496 8.9333,-5.9496 4.8654,0 8.7822,3.7068 8.1463,12.9819 -0.3441,5.0047 -2.2116,8.22 -4.8677,10.1873 -3.8274,3.5541 -11.1009,6.0106 -20.2189,3.63 -12.7094,-3.3121 -20.385,-2.4505 -23.0694,3.155 -2.3009,4.7992 -0.0759,9.2625 2.9733,10.445 1.4766,0.4594 2.6956,0.4408 3.5728,-0.6464 1.1191,-1.382 0.4989,-2.7454 0.4989,-2.7454 -0.1281,0.5443 -0.63,0.9457 -1.4789,0.7223 -0.662,-0.1728 -1.1422,-0.9666 -0.793,-1.904 0.2465,-0.6672 1.0819,-1.0247 1.9777,-0.636 1.2897,0.5652 1.8184,2.7954 0.9882,4.9779 -0.9562,2.4908 -5.9764,4.056 -9.856,1.1087 -4.2347,-3.2205 -4.9599,-8.3428 -4.0091,-12.0019 1.7053,-6.5699 7.3131,-8.9735 13.2396,-10.1299 l -1.2138,-0.0447 c -18.4698,0.134 -19.4758,14.9685 -19.4758,14.9685 -0.1943,-7.9571 5.5669,-20.6136 33.5746,-15.7139 3.2176,0.5644 6.3674,0.8429 8.7368,0.7953 4.0269,-0.3068 8.3428,-0.8638 10.6966,-3.7061 0.6567,-0.9039 1.0402,-1.9233 1.1959,-2.837 1.2003,-6.9429 -6.0025,-5.4008 -6.0025,-5.4008 0.4118,-1.114 3.3307,-3.4759 6.7084,-1.245 0,0 -1.5518,-2.6248 -4.4678,-2.945 z" />
    </g>
  </g>
</svg>
